<?xml version="1.0" encoding="UTF-8" standalone="no"?><svg xmlns:xlink="http://www.w3.org/1999/xlink" height="75.4px" width="83.2px" xmlns="http://www.w3.org/2000/svg"><g transform="matrix(1.0, 0.0, 0.0, 1.0, 41.6, 37.7)"><use height="75.4" transform="matrix(1.0, 0.0, 0.0, 1.0, -41.6, -37.7)" width="83.2" xlink:href="#shape0"/></g><defs><g id="shape0" transform="matrix(1.0, 0.0, 0.0, 1.0, 41.6, 37.7)"><path d="M-26.05 -22.65 Q-26.05 -28.75 -21.7 -33.35 -17.3 -37.7 -11.0 -37.7 -4.65 -37.7 -0.4 -33.35 4.05 -28.85 4.05 -22.65 L4.05 -9.75 Q4.05 -8.35 3.05 -7.35 2.0 -6.3 0.6 -6.3 -0.75 -6.3 -1.8 -7.35 -2.85 -8.35 -2.85 -9.75 L-2.85 -22.65 Q-2.85 -26.1 -5.25 -28.5 -7.45 -30.8 -11.0 -30.8 -14.45 -30.8 -16.75 -28.5 L-16.85 -28.4 Q-19.15 -25.85 -19.15 -22.65 L-19.15 -9.75 Q-19.15 -8.35 -20.2 -7.35 -21.2 -6.3 -22.6 -6.3 -23.85 -6.3 -24.9 -7.35 -26.05 -8.35 -26.05 -9.75 L-26.05 -22.65" fill="url(#gradient0)" fill-rule="evenodd" stroke="none"/><path d="M-30.1 -15.2 L8.2 -15.2 Q19.7 -15.2 19.7 -3.7 L19.7 26.2 Q19.7 37.7 8.2 37.7 L-30.1 37.7 Q-41.6 37.7 -41.6 26.2 L-41.6 -3.7 Q-41.6 -15.2 -30.1 -15.2" fill="url(#gradient1)" fill-rule="evenodd" stroke="none"/><path d="M-22.55 11.2 Q-22.55 13.35 -24.0 14.85 -25.5 16.35 -27.65 16.35 -29.55 16.35 -31.3 14.85 -32.8 13.1 -32.8 11.2 -32.8 9.05 -31.3 7.55 -29.85 6.05 -27.65 6.05 -25.35 6.05 -24.0 7.55 -22.55 8.9 -22.55 11.2 M11.2 11.2 Q11.2 13.35 9.75 14.85 8.25 16.35 6.2 16.35 4.2 16.35 2.45 14.85 0.95 13.1 0.95 11.2 0.95 9.05 2.45 7.55 3.9 6.05 6.2 6.05 8.4 6.05 9.75 7.55 11.2 8.9 11.2 11.2 M-5.95 11.2 Q-5.95 13.35 -7.4 14.85 -8.9 16.35 -11.05 16.35 -12.95 16.35 -14.7 14.85 -16.2 13.1 -16.2 11.2 -16.2 9.05 -14.7 7.55 -13.25 6.05 -11.05 6.05 -8.75 6.05 -7.4 7.55 -5.95 8.9 -5.95 11.2" fill="#ffffff" fill-rule="evenodd" stroke="none"/><path d="M41.6 11.1 Q41.6 19.65 35.55 25.65 29.5 31.75 20.95 31.75 12.4 31.75 6.35 25.65 0.3 19.65 0.3 11.1 0.3 2.55 6.35 -3.55 12.4 -9.55 20.95 -9.55 29.5 -9.55 35.55 -3.55 41.6 2.55 41.6 11.1" fill="#00d5ca" fill-rule="evenodd" stroke="none"/><path d="M9.55 13.3 Q8.65 12.4 8.6 11.15 8.6 9.9 9.45 9.05 10.3 8.15 11.55 8.1 12.8 8.05 13.7 8.95 L18.55 13.6 27.75 2.6 Q28.55 1.65 29.8 1.55 31.0 1.4 32.0 2.2 32.9 3.0 33.05 4.25 33.15 5.45 32.35 6.45 L21.05 19.9 19.7 20.8 18.1 20.9 Q17.3 20.7 16.7 20.15 L9.55 13.3" fill="#006563" fill-rule="evenodd" stroke="none"/></g><linearGradient gradientTransform="matrix(0.013, 0.013, -0.0135, 0.0135, -10.95, -22.15)" gradientUnits="userSpaceOnUse" id="gradient0" spreadMethod="pad" x1="-819.2" x2="819.2"><stop offset="0.0" stop-color="#dbdded"/><stop offset="1.0" stop-color="#a8acc3"/></linearGradient><linearGradient gradientTransform="matrix(0.0315, 0.0315, -0.0228, 0.0228, -10.95, 11.25)" gradientUnits="userSpaceOnUse" id="gradient1" spreadMethod="pad" x1="-819.2" x2="819.2"><stop offset="0.09019607843137255" stop-color="#9797e2"/><stop offset="1.0" stop-color="#2c4b7a"/></linearGradient></defs></svg>