<?xml version="1.0" encoding="UTF-8" standalone="no"?><svg xmlns:xlink="http://www.w3.org/1999/xlink" height="37.45px" width="37.45px" xmlns="http://www.w3.org/2000/svg"><g transform="matrix(1.0, 0.0, 0.0, 1.0, 18.7, 18.7)"><use height="37.45" transform="matrix(1.0, 0.0, 0.0, 1.0, -18.7, -18.7)" width="37.45" xlink:href="#shape0"/></g><defs><g id="shape0" transform="matrix(1.0, 0.0, 0.0, 1.0, 18.7, 18.7)"><path d="M-18.7 -18.7 L18.75 -18.7 18.75 18.75 -18.7 18.75 -18.7 -18.7" fill="#ffffff" fill-opacity="0.0" fill-rule="evenodd" stroke="none"/><path d="M0.7 11.9 L0.65 11.7 -5.9 11.7 -5.9 11.9 -5.95 12.4 Q-5.95 13.8 -4.95 14.8 L-5.0 14.8 Q-4.05 15.75 -2.65 15.75 -1.2 15.75 -0.25 14.8 0.7 13.8 0.7 12.4 L0.7 11.9 M-12.9 11.7 L-13.15 11.7 Q-16.0 11.2 -17.1 8.95 L-17.1 8.9 Q-18.4 6.25 -16.45 3.6 L-16.45 3.55 Q-14.15 0.3 -13.7 -4.4 -12.65 -15.15 -2.5 -15.1 7.35 -15.15 8.4 -4.4 8.85 0.3 11.15 3.55 L11.2 3.6 Q13.1 6.25 11.8 8.9 L11.8 8.95 Q10.7 11.2 7.85 11.7 L7.6 11.7 3.65 11.7 3.7 12.4 Q3.7 15.0 1.9 16.9 L1.85 16.9 Q0.0 18.75 -2.65 18.75 -5.25 18.75 -7.1 16.9 -8.95 15.0 -8.95 12.4 L-8.9 11.7 -12.9 11.7 M9.1 7.6 Q9.6 6.5 8.75 5.35 5.95 1.5 5.4 -4.1 4.65 -12.05 -2.5 -12.1 -9.95 -12.05 -10.7 -4.1 -11.25 1.5 -14.0 5.35 L-14.05 5.35 Q-14.9 6.5 -14.4 7.6 -13.9 8.45 -12.75 8.7 L7.5 8.7 Q8.6 8.45 9.1 7.6" fill="#ffffff" fill-rule="evenodd" stroke="none"/><path d="M17.6 -10.7 Q17.6 -7.4 15.25 -5.1 12.9 -2.75 9.6 -2.75 6.3 -2.75 3.95 -5.1 1.65 -7.4 1.65 -10.7 1.65 -14.0 3.95 -16.35 6.3 -18.7 9.6 -18.7 12.9 -18.7 15.25 -16.35 17.6 -14.0 17.6 -10.7" fill="#10cbb4" fill-rule="evenodd" stroke="none"/></g></defs></svg>